<svg width="946" height="722" viewBox="0 0 946 722" fill="none" xmlns="http://www.w3.org/2000/svg">
<path d="M901.656 0H886.875V37.6042C886.875 50.0135 876.898 60.1667 864.703 60.1667H790.797C778.602 60.1667 768.625 50.0135 768.625 37.6042V0H177.375V37.6042C177.375 50.0135 167.398 60.1667 155.203 60.1667H81.2969C69.1023 60.1667 59.125 50.0135 59.125 37.6042V0H44.3438C19.7699 0 0 20.1182 0 45.125V676.875C0 701.882 19.7699 722 44.3438 722H59.125V684.396C59.125 671.986 69.1023 661.833 81.2969 661.833H155.203C167.398 661.833 177.375 671.986 177.375 684.396V722H768.625V684.396C768.625 671.986 778.602 661.833 790.797 661.833H864.703C876.898 661.833 886.875 671.986 886.875 684.396V722H901.656C926.23 722 946 701.882 946 676.875V45.125C946 20.1182 926.23 0 901.656 0ZM177.375 579.104C177.375 591.514 167.398 601.667 155.203 601.667H81.2969C69.1023 601.667 59.125 591.514 59.125 579.104V503.896C59.125 491.486 69.1023 481.333 81.2969 481.333H155.203C167.398 481.333 177.375 491.486 177.375 503.896V579.104ZM177.375 398.604C177.375 411.014 167.398 421.167 155.203 421.167H81.2969C69.1023 421.167 59.125 411.014 59.125 398.604V323.396C59.125 310.986 69.1023 300.833 81.2969 300.833H155.203C167.398 300.833 177.375 310.986 177.375 323.396V398.604ZM177.375 218.104C177.375 230.514 167.398 240.667 155.203 240.667H81.2969C69.1023 240.667 59.125 230.514 59.125 218.104V142.896C59.125 130.486 69.1023 120.333 81.2969 120.333H155.203C167.398 120.333 177.375 130.486 177.375 142.896V218.104ZM679.938 609.188C679.938 621.597 669.96 631.75 657.766 631.75H288.234C276.04 631.75 266.062 621.597 266.062 609.188V428.688C266.062 416.278 276.04 406.125 288.234 406.125H657.766C669.96 406.125 679.938 416.278 679.938 428.688V609.188ZM679.938 293.313C679.938 305.722 669.96 315.875 657.766 315.875H288.234C276.04 315.875 266.062 305.722 266.062 293.313V112.813C266.062 100.403 276.04 90.25 288.234 90.25H657.766C669.96 90.25 679.938 100.403 679.938 112.813V293.313ZM886.875 579.104C886.875 591.514 876.898 601.667 864.703 601.667H790.797C778.602 601.667 768.625 591.514 768.625 579.104V503.896C768.625 491.486 778.602 481.333 790.797 481.333H864.703C876.898 481.333 886.875 491.486 886.875 503.896V579.104ZM886.875 398.604C886.875 411.014 876.898 421.167 864.703 421.167H790.797C778.602 421.167 768.625 411.014 768.625 398.604V323.396C768.625 310.986 778.602 300.833 790.797 300.833H864.703C876.898 300.833 886.875 310.986 886.875 323.396V398.604ZM886.875 218.104C886.875 230.514 876.898 240.667 864.703 240.667H790.797C778.602 240.667 768.625 230.514 768.625 218.104V142.896C768.625 130.486 778.602 120.333 790.797 120.333H864.703C876.898 120.333 886.875 130.486 886.875 142.896V218.104Z" fill="url(#paint0_linear)"/>
<defs>
<linearGradient id="paint0_linear" x1="473" y1="0" x2="473" y2="731.782" gradientUnits="userSpaceOnUse">
<stop stop-color="#A8A8B3" stop-opacity="0.1"/>
<stop offset="1" stop-color="#C2C2C2" stop-opacity="0"/>
</linearGradient>
</defs>
</svg>
